<?xml version="1.0" standalone="no"?>
<!DOCTYPE svg PUBLIC "-//W3C//DTD SVG 20010904//EN"
 "http://www.w3.org/TR/2001/REC-SVG-20010904/DTD/svg10.dtd">
<svg version="1.0" xmlns="http://www.w3.org/2000/svg"
 width="500.000000pt" height="500.000000pt" viewBox="0 0 500.000000 500.000000"
 preserveAspectRatio="xMidYMid meet">
<metadata>
Created by potrace 1.11, written by Peter Selinger 2001-2013
</metadata>
<g transform="translate(0.000000,500.000000) scale(0.100000,-0.100000)"
fill="#000000" stroke="none">
<path d="M192 4979 c-73 -28 -143 -99 -170 -172 l-22 -58 0 -2249 c0 -2195 1
-2251 19 -2301 28 -73 82 -133 149 -166 l57 -28 2275 0 2275 0 50 23 c59 28
120 90 149 152 l21 45 0 2265 c0 1246 -3 2278 -7 2293 -10 42 -54 112 -87 140
-16 13 -51 35 -78 48 l-48 24 -2265 2 c-2252 2 -2265 2 -2318 -18z"/>
</g>
</svg>
